<?xml version="1.0" standalone="no"?>
<!DOCTYPE svg PUBLIC "-//W3C//DTD SVG 20010904//EN"
 "http://www.w3.org/TR/2001/REC-SVG-20010904/DTD/svg10.dtd">
<svg version="1.0" xmlns="http://www.w3.org/2000/svg"
 width="98.000000pt" height="98.000000pt" viewBox="0 0 98.000000 98.000000"
 preserveAspectRatio="xMidYMid meet">
<metadata>
Created by potrace 1.11, written by Peter Selinger 2001-2013
</metadata>
<g transform="translate(0.000000,98.000000) scale(0.100000,-0.100000)"
fill="#000000" stroke="none">
<path d="M2 728 c3 -212 3 -213 31 -260 45 -78 113 -118 207 -123 107 -5 188
43 235 139 31 63 34 86 23 150 -9 46 -52 136 -65 136 -3 0 -19 -13 -34 -30
-28 -29 -37 -50 -21 -50 4 0 15 -19 23 -42 39 -109 -40 -220 -152 -213 -62 3
-93 18 -126 61 l-28 37 -3 204 -3 203 -45 0 -45 0 3 -212z"/>
<path d="M204 663 c-48 -40 -51 -93 -9 -133 58 -54 148 -6 139 74 -6 60 -86
96 -130 59z"/>
<path d="M554 461 c-40 -11 -109 -62 -132 -96 -43 -62 -60 -170 -36 -224 4 -9
8 -18 8 -21 1 -3 12 -22 25 -43 25 -40 34 -40 72 7 15 18 15 21 -2 50 -72 123
31 267 172 241 19 -3 45 -14 58 -24 23 -18 24 -17 52 10 16 15 26 34 23 42
-10 27 -96 61 -159 63 -33 1 -70 -1 -81 -5z"/>
</g>
</svg>
